<svg xmlns="http://www.w3.org/2000/svg" viewBox="0 0 20 20"><defs><style>.cls-1{fill:#77b3d4;}.cls-2{fill:#6695b0;}.cls-3{fill:#597d93;}.cls-4{fill:#4f5d73;}.cls-5{fill:#fff;}</style></defs><title>Asset 1</title><g id="Layer_2" data-name="Layer 2"><g id="Layer_1-2" data-name="Layer 1"><g id="_Group_" data-name="&lt;Group&gt;"><path id="_Path_" data-name="&lt;Path&gt;" class="cls-1" d="M10,0A10,10,0,1,1,0,10,10,10,0,0,1,10,0"/><path id="_Path_2" data-name="&lt;Path&gt;" class="cls-2" d="M10,3.59A1.88,1.88,0,0,0,8.13,5.47v5.62a1.87,1.87,0,1,0,3.74,0V5.47A1.88,1.88,0,0,0,10,3.59"/><path id="_Path_3" data-name="&lt;Path&gt;" class="cls-2" d="M13.59,9.38a.47.47,0,0,0-.47.46V11a3.13,3.13,0,1,1-6.25,0V9.84a.47.47,0,0,0-.46-.46.47.47,0,0,0-.47.46V11a4.05,4.05,0,0,0,3.59,4v-.23a.47.47,0,0,1,.94,0v.23a4.08,4.08,0,0,0,3.59-4V9.84a.47.47,0,0,0-.47-.46"/><path id="_Path_4" data-name="&lt;Path&gt;" class="cls-2" d="M10.47,15.07l-.47,0-.47,0v1.49h.94V15.07"/><path id="_Path_5" data-name="&lt;Path&gt;" class="cls-3" d="M10,14.38a.47.47,0,0,0-.47.46v.23l.47,0,.47,0v-.23a.47.47,0,0,0-.47-.46"/><path id="_Path_6" data-name="&lt;Path&gt;" class="cls-2" d="M11.56,16.56H10.47v.16a.47.47,0,1,1-.94,0v-.16H8.44a.47.47,0,1,0,0,.94h3.12a.47.47,0,0,0,0-.94"/><path id="_Path_7" data-name="&lt;Path&gt;" class="cls-3" d="M10.47,16.56H9.53v.16a.47.47,0,1,0,.94,0v-.16"/><path id="_Path_8" data-name="&lt;Path&gt;" class="cls-4" d="M10,12.34a1.88,1.88,0,0,0,1.88-1.87V4.84a1.88,1.88,0,0,0-3.75,0v5.63A1.87,1.87,0,0,0,10,12.34Z"/><path id="_Path_9" data-name="&lt;Path&gt;" class="cls-5" d="M10,14.47a4.05,4.05,0,0,1-4.06-4.06V9.22a.47.47,0,1,1,.94,0v1.19a3.13,3.13,0,0,0,6.25,0V9.22a.47.47,0,0,1,.46-.47.48.48,0,0,1,.47.47v1.19A4.08,4.08,0,0,1,10,14.47Z"/><path id="_Path_10" data-name="&lt;Path&gt;" class="cls-5" d="M10,16.56a.48.48,0,0,1-.47-.47V14.22a.47.47,0,1,1,.94,0v1.87A.48.48,0,0,1,10,16.56Z"/><path id="_Path_11" data-name="&lt;Path&gt;" class="cls-5" d="M11.56,16.88H8.44a.47.47,0,1,1,0-.94h3.12a.47.47,0,0,1,0,.94Z"/></g></g></g></svg>