<svg width="48" height="48" xmlns="http://www.w3.org/2000/svg">

 <g>
  <title>background</title>
  <rect fill="none" id="canvas_background" height="402" width="582" y="-1" x="-1"/>
 </g>
 <g>
  <title>Layer 1</title>
  <path id="svg_1" fill="none" d="m0,0l48,0l0,48l-48,0l0,-48z"/>
  <path fill="#ffffff" id="svg_2" d="m24,18c-3.21,0 -6.3,0.5 -9.2,1.44l0,6.21c0,0.79 -0.46,1.47 -1.12,1.8c-1.95,0.98 -3.74,2.23 -5.33,3.7c-0.36,0.35 -0.85,0.57 -1.4,0.57c-0.55,0 -1.05,-0.22 -1.41,-0.59l-4.95,-4.95c-0.37,-0.37 -0.59,-0.87 -0.59,-1.42c0,-0.55 0.22,-1.05 0.59,-1.42c6.09,-5.79 14.34,-9.34 23.41,-9.34s17.32,3.55 23.41,9.34c0.37,0.36 0.59,0.87 0.59,1.42c0,0.55 -0.22,1.05 -0.59,1.41l-4.95,4.95c-0.36,0.36 -0.86,0.59 -1.41,0.59c-0.54,0 -1.04,-0.22 -1.4,-0.57c-1.59,-1.47 -3.38,-2.72 -5.33,-3.7c-0.66,-0.33 -1.12,-1.01 -1.12,-1.8l0,-6.21c-2.9,-0.93 -5.99,-1.43 -9.2,-1.43z"/>
 </g>
</svg>