<svg width="24" height="24" xmlns="http://www.w3.org/2000/svg">

 <g>
  <title>background</title>
  <rect fill="none" id="canvas_background" height="402" width="582" y="-1" x="-1"/>
 </g>
 <g>
  <title>Layer 1</title>
  <path fill="#ffffff" stroke="null" id="svg_1" d="m22.565061,16.444762l0,3.007733a2.020663,2.005156 0 0 1 -2.202522,2.005156a19.994458,19.841014 0 0 1 -8.71916,-3.077914a19.701462,19.550267 0 0 1 -6.061988,-6.015467a19.994458,19.841014 0 0 1 -3.101717,-8.692349a2.020663,2.005156 0 0 1 2.010559,-2.18562l3.030994,0a2.020663,2.005156 0 0 1 2.020663,1.724434a12.972655,12.873099 0 0 0 0.707232,2.817244a2.020663,2.005156 0 0 1 -0.454649,2.115439l-1.283121,1.273274a16.165302,16.041245 0 0 0 6.061988,6.015467l1.283121,-1.273274a2.020663,2.005156 0 0 1 2.131799,-0.45116a12.972655,12.873099 0 0 0 2.839031,0.701804a2.020663,2.005156 0 0 1 1.73777,2.035233z"/>
 </g>
</svg>