<svg xmlns="http://www.w3.org/2000/svg" viewBox="0 0 55.06 55.06"><defs><style>.cls-1{fill:#00d2a5;}.cls-2{fill:#fff;}</style></defs><title>Asset 29</title><g id="Layer_2" data-name="Layer 2"><g id="Layer_1-2" data-name="Layer 1"><path class="cls-1" d="M27.53,55.06h0A27.53,27.53,0,0,1,0,27.53H0A27.54,27.54,0,0,1,27.53,0h0A27.53,27.53,0,0,1,55.06,27.53h0A27.52,27.52,0,0,1,27.53,55.06Z"/><path class="cls-2" d="M15.47,39l1.42-6.8a3.26,3.26,0,0,1,2.36-2.48l8.43-2.2-8.44-2.24a3.25,3.25,0,0,1-2.35-2.47l-1.42-6.76a.48.48,0,0,1,.67-.52L40.5,26.81a.8.8,0,0,1,0,1.44L16.14,39.52A.48.48,0,0,1,15.47,39Z"/></g></g></svg>