<svg xmlns="http://www.w3.org/2000/svg" viewBox="0 0 61 61"><defs><style>.cls-1{fill:#fff6d4;}.cls-2{fill:none;stroke:#f25f25;stroke-miterlimit:10;stroke-width:1.5px;}</style></defs><title>Asset 33</title><g id="Layer_2" data-name="Layer 2"><g id="Layer_1-2" data-name="Layer 1"><circle class="cls-1" cx="30.5" cy="30.5" r="30.5"/><rect class="cls-2" x="20.13" y="19.7" width="20.74" height="20.92" rx="5.75" ry="5.75"/><path class="cls-2" d="M30.67,25.94l1.27,2.57a.15.15,0,0,0,.14.1l2.83.42a.18.18,0,0,1,.11.31l-2.06,2a.18.18,0,0,0-.05.16l.48,2.83a.18.18,0,0,1-.27.19L30.59,33.2a.19.19,0,0,0-.18,0l-2.53,1.33a.18.18,0,0,1-.27-.19l.48-2.83a.18.18,0,0,0-.05-.16l-2.06-2a.18.18,0,0,1,.11-.31l2.83-.42a.15.15,0,0,0,.14-.1l1.27-2.57A.19.19,0,0,1,30.67,25.94Z"/><line class="cls-2" x1="27.49" y1="16.39" x2="27.49" y2="23.19"/><line class="cls-2" x1="33.42" y1="16.39" x2="33.42" y2="23.19"/></g></g></svg>