<?xml version="1.0" encoding="utf-8"?>
<!-- Generator: Adobe Illustrator 22.0.1, SVG Export Plug-In . SVG Version: 6.00 Build 0)  -->
<svg version="1.1" id="Layer_1" xmlns="http://www.w3.org/2000/svg" xmlns:xlink="http://www.w3.org/1999/xlink" x="0px" y="0px"
	 viewBox="0 0 24 24" style="enable-background:new 0 0 24 24;" xml:space="preserve">
<title>Asset 6</title>
<path d="M9.7,10.8l7.5-7.5c-0.9-1.6-2.7-2.7-4.7-2.7C9.5,0.6,7.1,3,7,6C7,8,8.1,9.8,9.7,10.8z" fill="#FFFFFF"/>
<g>
	<path d="M9,11.4c-0.4-0.2-0.7-0.5-1.1-0.7c-0.2-0.1-0.4-0.2-0.7-0.2c-1.1,0.1-2.1,0.4-2.8,1.3c-0.4,0.5-0.7,1.1-1,1.7
		c-0.7,1.4-0.9,2.9-0.9,4.5L9,11.4z" fill="#FFFFFF"/>
	<path d="M21.4,12.7c-0.7-1.2-1.6-1.9-2.9-2.2c-0.6-0.1-1.1-0.1-1.6,0.3c-0.2,0.2-0.4,0.4-0.6,0.5l-11,11c0.3,0.1,0.7,0.1,1.1,0.1
		h6.2c2,0,4,0,6.1-0.1c0.3,0,0.6-0.1,0.9-0.1c1.7-0.2,2.9-1.4,3-3.1c0.1-0.9,0-1.9-0.1-2.9C22.3,15,22,13.8,21.4,12.7z" fill="#FFFFFF"/>
</g>
<g>
	<path d="M1.3,22.8L1.3,22.8c-0.6-0.6-0.6-1.5,0-2.1L20.7,1.3c0.6-0.6,1.5-0.6,2.1,0l0,0c0.6,0.6,0.6,1.5,0,2.1L3.3,22.8
		C2.8,23.3,1.8,23.3,1.3,22.8z" fill="#FFFFFF"/>
</g>
</svg>
