<svg width="64" height="64" xmlns="http://www.w3.org/2000/svg">

 <g>
  <title>background</title>
  <rect fill="none" id="canvas_background" height="402" width="582" y="-1" x="-1"/>
 </g>
 <g>
  <title>Layer 1</title>
  <rect id="svg_2" y="14" x="42" width="20" height="36" fill="#D34A4B"/>
  <path id="svg_3" fill="#414042" d="m62,51l-20,0c-0.5527,0 -1,-0.4473 -1,-1l0,-36c0,-0.5527 0.4473,-1 1,-1l20,0c0.5527,0 1,0.4473 1,1l0,36c0,0.5527 -0.4473,1 -1,1zm-19,-2l18,0l0,-34l-18,0l0,34z"/>
  <rect id="svg_5" y="14" x="2" width="20" height="36" fill="#4558A3"/>
  <path id="svg_6" fill="#414042" d="m22,51l-20,0c-0.5527,0 -1,-0.4473 -1,-1l0,-36c0,-0.5527 0.4473,-1 1,-1l20,0c0.5527,0 1,0.4473 1,1l0,36c0,0.5527 -0.4473,1 -1,1zm-19,-2l18,0l0,-34l-18,0l0,34z"/>
  <rect id="svg_8" y="14" x="22" width="20" height="36" fill="#F9F9F9"/>
  <path id="svg_9" fill="#414042" d="m42,51l-20,0c-0.5527,0 -1,-0.4473 -1,-1l0,-36c0,-0.5527 0.4473,-1 1,-1l20,0c0.5527,0 1,0.4473 1,1l0,36c0,0.5527 -0.4473,1 -1,1zm-19,-2l18,0l0,-34l-18,0l0,34z"/>
 </g>
</svg>