<svg xmlns="http://www.w3.org/2000/svg" id="Layer_1" viewBox="0 0 64 64" style="&#10;"><path fill="#fff" d="M33.716 27.335a1.498 1.498 0 0 1-1.061-2.559l.975-.976h-4.441a.5.5 0 0 1 0-1h5.648a.5.5 0 0 1 .354.854l-1.828 1.829a.5.5 0 1 0 .707.708l3.535-3.535a.502.502 0 0 0 0-.708l-3.535-3.535a.5.5 0 0 0-.707.708l1.828 1.828a.499.499 0 0 1-.354.854h-5.648a.5.5 0 0 1 0-1h4.441l-.975-.975a1.501 1.501 0 0 1 0-2.121 1.503 1.503 0 0 1 2.121 0l3.535 3.535a1.502 1.502 0 0 1 0 2.122l-3.535 3.535a1.505 1.505 0 0 1-1.06.436zM27.249 23.818a.5.5 0 0 1-.5-.5v-2a.5.5 0 0 1 1 0v2a.5.5 0 0 1-.5.5zM25.249 23.818a.5.5 0 0 1-.5-.5v-2a.5.5 0 0 1 1 0v2a.5.5 0 0 1-.5.5z" style="fill: #fff;"/><path fill="#fff" d="M14.75 27.301c-3.584 0-6.5-2.916-6.5-6.5s2.916-6.5 6.5-6.5 6.5 2.916 6.5 6.5-2.916 6.5-6.5 6.5zm0-11c-2.481 0-4.5 2.019-4.5 4.5s2.019 4.5 4.5 4.5 4.5-2.019 4.5-4.5-2.019-4.5-4.5-4.5zM24.75 49.301h-20a1 1 0 0 1-1-1v-14c0-2.757 2.243-5 5-5h12c2.757 0 5 2.243 5 5v14a1 1 0 0 1-1 1zm-19-2h18v-13c0-1.654-1.346-3-3-3h-12c-1.654 0-3 1.346-3 3v13z"/><path fill="#fff" d="M21.25 48.801h-13a.5.5 0 0 1-.5-.5v-12a.5.5 0 0 1 1 0v11.5h12v-11.5a.5.5 0 0 1 1 0v12a.5.5 0 0 1-.5.5zM48.75 27.301c-3.584 0-6.5-2.916-6.5-6.5s2.916-6.5 6.5-6.5 6.5 2.916 6.5 6.5-2.916 6.5-6.5 6.5zm0-11c-2.481 0-4.5 2.019-4.5 4.5s2.019 4.5 4.5 4.5 4.5-2.019 4.5-4.5-2.019-4.5-4.5-4.5zM58.75 49.301h-20a1 1 0 0 1-1-1v-14c0-2.757 2.243-5 5-5h12c2.757 0 5 2.243 5 5v14a1 1 0 0 1-1 1zm-19-2h18v-13c0-1.654-1.346-3-3-3h-12c-1.654 0-3 1.346-3 3v13z"/><path fill="#fff" d="M55.25 48.801h-13a.5.5 0 0 1-.5-.5v-12a.5.5 0 0 1 1 0v11.5h12v-11.5a.5.5 0 0 1 1 0v12a.5.5 0 0 1-.5.5z"/></svg>