<svg width="800" height="800" xmlns="http://www.w3.org/2000/svg">

 <g>
  <title>background</title>
  <rect fill="none" id="canvas_background" height="402" width="582" y="-1" x="-1"/>
 </g>
 <g>
  <title>Layer 1</title>
  <path fill="#ffffff" id="svg_2" d="m293.3,626.1l0,0l0,0c34.1,34.1 80,52.3 128,52.3c100.3,0 182.4,-82.1 182.4,-182.4l0,-105.6c0,-1.1 0,-2.1 0,-2.1c0,-1.1 0,-2.1 0,-2.1l0,-204.9c0,-18.1 -13.9,-32 -32,-32s-32,13.9 -32,32l0,177.1l-32,0l0,-219.7c0,-18.1 -13.9,-32 -32,-32c-18.1,0 -32,13.9 -32,32l0,198.4l-32,0l0,-219.8c0,-18.1 -13.9,-32 -32,-32c-18.1,0 -32,13.9 -32,32l0,230.4l-32,0l0,-198.4c0,-18.1 -13.9,-32 -32,-32c-18.1,0 -32,13.9 -32,32l0,222.9c0,1.1 0,2.1 0,3.2s0,2.1 0,3.2l0,113.1l-96,-96c-12.8,-12.8 -33.1,-12.8 -44.8,0c-12.8,12.8 -12.8,33.1 0,44.8l182.4,185.6z"/>
 </g>
</svg>