<svg xmlns="http://www.w3.org/2000/svg" viewBox="0 0 20 15"><defs><style>.cls-1{fill:#007fff;}</style></defs><title>Asset 2</title><g id="Layer_2" data-name="Layer 2"><g id="Layer_1-2" data-name="Layer 1"><path class="cls-1" d="M17.78,0H2.22A2.23,2.23,0,0,0,0,2.22V12.78A2.23,2.23,0,0,0,2.22,15H17.78A2.23,2.23,0,0,0,20,12.78V2.22A2.23,2.23,0,0,0,17.78,0Zm1.38,12.55c0,1.12-.5,1.62-1.62,1.62H2.45c-1.12,0-1.62-.5-1.62-1.62V2.45c0-1.12.5-1.62,1.62-1.62H17.54c1.12,0,1.62.5,1.62,1.62ZM6.25,5.83,8.33,7.5l5.42-4.58,4.16,3.75v6.25H2.08V9.17ZM3.75,2.08A1.67,1.67,0,1,0,5.42,3.75,1.67,1.67,0,0,0,3.75,2.08Z"/></g></g></svg>