<svg xmlns="http://www.w3.org/2000/svg" viewBox="0 0 15.92 19.66"><defs><style>.cls-1{fill:none;stroke:#4d4d4d;stroke-miterlimit:10;stroke-width:1.14px;}</style></defs><title>Asset 10</title><g id="Layer_2" data-name="Layer 2"><g id="Layer_1-2" data-name="Layer 1"><path class="cls-1" d="M9,12.52,6.12,10.9A3.5,3.5,0,0,1,4.79,6.13L6.92,2.35A3.49,3.49,0,0,1,11.68,1l1.89,1.07A3.5,3.5,0,0,1,14.9,6.86l-1.58,2.8"/><path class="cls-1" d="M7.19,7.29,9.81,8.77a3.49,3.49,0,0,1,1.33,4.76L9,17.31a3.51,3.51,0,0,1-4.77,1.33L2.35,17.57A3.49,3.49,0,0,1,1,12.81l1.39-2.47"/></g></g></svg>