<svg width="35.26" height="35.26" xmlns="http://www.w3.org/2000/svg"><defs><style>.cls-5{fill:#8f7f27;}.cls-2{fill:#d1bc49;}.cls-3{fill:#fff;}</style></defs><g id="Layer_2" data-name="Layer 2"><g id="Layer_1-2" data-name="Layer 1"><polygon class="cls-5" points="15.27 6.08 15.27 6.08 15.27 0 15.27 0 5.13 5.85 10.4 8.89 15.27 6.08"></polygon><polygon class="cls-2" points="20.14 8.89 25.4 5.85 15.27 0 15.27 6.08 20.14 8.89"></polygon><polygon class="cls-2" points="25.27 23.4 19.82 26.55 19.82 21.53 15.27 24.16 15.27 29.18 15.27 35.26 30.54 26.44 25.27 23.4"></polygon><polygon class="cls-5" points="10.72 21.53 10.72 26.55 5.26 23.4 0 26.44 15.27 35.26 15.27 30.01 15.27 29.18 15.27 29.18 15.27 24.16 10.72 21.53"></polygon><polygon class="cls-2" points="10.4 8.89 5.13 5.85 0 8.81 0 8.89 0 15.34 0 26.44 5.26 23.4 5.26 18.38 5.26 11.93 15.27 17.7 15.27 11.7 10.4 8.89"></polygon><polygon class="cls-5" points="25.4 5.85 20.14 8.89 15.27 11.7 15.27 17.7 25.27 11.93 25.27 18.38 25.27 23.4 30.54 26.44 30.54 15.34 30.54 8.89 30.54 8.81 25.4 5.85"></polygon></g></g>
					</svg>