<svg xmlns="http://www.w3.org/2000/svg" viewBox="0 0 19.96 19.5"><defs><style>.cls-1{fill:#207245;}.cls-2{fill:#fff;}</style></defs><title>Asset 3</title><g id="Layer_2" data-name="Layer 2"><g id="Layer_1-2" data-name="Layer 1"><path id="path10" class="cls-1" d="M10.44,0h1.35V1.81c2.27,0,4.54,0,6.81,0A2.08,2.08,0,0,1,19.73,2,2.09,2.09,0,0,1,20,3.17c0,3.94,0,7.87,0,11.81a10.07,10.07,0,0,1-.08,2c-.09.47-.65.48-1,.5-2.35,0-4.7,0-7,0v2H10.38C6.92,18.87,3.46,18.29,0,17.69V1.82Z"/><path id="path48" class="cls-2" d="M11.79,2.49h7.48V16.78H11.79V15.42H13.6V13.83H11.79v-.91H13.6V11.34H11.79v-.91H13.6V8.84H11.79v-.9H13.6V6.35H11.79V5.44H13.6V3.85H11.79Z"/><path id="path58" class="cls-1" d="M14.51,3.85h3.17V5.44H14.51Z"/><path id="path72" class="cls-2" d="M6.72,6c.51,0,1-.07,1.54-.09L6.43,9.6c.62,1.27,1.26,2.53,1.88,3.8l-1.63-.1a24.83,24.83,0,0,1-1.13-2.85c-.31.92-.75,1.79-1.11,2.69-.49,0-1,0-1.49-.05C3.54,12,4.1,10.8,4.7,9.67,4.19,8.5,3.63,7.36,3.1,6.2l1.5-.09c.34.89.71,1.76,1,2.67C5.89,7.82,6.33,6.91,6.72,6Z"/><path id="path90" class="cls-1" d="M14.51,6.35h3.17V7.94H14.51Z"/><path id="path108" class="cls-1" d="M14.51,8.84h3.17v1.59H14.51Z"/><path id="path114" class="cls-1" d="M14.51,11.34h3.17v1.58H14.51Z"/><path id="path120" class="cls-1" d="M14.51,13.83h3.17v1.59H14.51Z"/></g></g></svg>