<svg xmlns="http://www.w3.org/2000/svg" id="baseline-mic-24px" viewBox="0 0 18 18" style="&#10;    fill: #ffffff;&#10;">
  <defs>
    <style>
      .cls-1 {
        fill: none;
      }
    </style>
  </defs>
  <path id="Path_3" data-name="Path 3" d="M10.25,11a2.241,2.241,0,0,0,2.242-2.25l.008-4.5a2.25,2.25,0,1,0-4.5,0v4.5A2.247,2.247,0,0,0,10.25,11Zm3.975-2.25a3.892,3.892,0,0,1-3.975,3.825A3.892,3.892,0,0,1,6.275,8.75H5a5.238,5.238,0,0,0,4.5,5.04v2.46H11V13.79a5.226,5.226,0,0,0,4.5-5.04Z" transform="translate(-1.25 -0.5)"/>
  <path id="Path_4" data-name="Path 4" class="cls-1" d="M0,0H18V18H0Z"/>
</svg>