<svg xmlns="http://www.w3.org/2000/svg" viewBox="0 0 24 24"><defs><style>.cls-1{fill:none;}.cls-2{fill:#FFF;}</style></defs><title>Asset 25</title><g id="Layer_2" data-name="Layer 2"><g id="Layer_1-2" data-name="Layer 1"><path class="cls-1" d="M0,0H24V24H0ZM0,0H24V24H0Z"/><path class="cls-2" d="M19,11H17.3a5.11,5.11,0,0,1-.43,2.05l1.23,1.23A6.59,6.59,0,0,0,19,11Zm-4,.17c0-.06,0-.11,0-.17V5A3,3,0,0,0,9,5v.18ZM4.27,3,3,4.27l6,6V11a3,3,0,0,0,3,3,2.82,2.82,0,0,0,.65-.08l1.66,1.66A5.5,5.5,0,0,1,12,16.1,5.19,5.19,0,0,1,6.7,11H5a7,7,0,0,0,6,6.72V21h2V17.72a7,7,0,0,0,2.54-.9L19.73,21,21,19.73Z"/></g></g></svg>
