<svg xmlns="http://www.w3.org/2000/svg" viewBox="0 0 20 19.91"><defs><style>.cls-1{fill:#cb4a32;}.cls-2{fill:#fff;}</style></defs><title>Asset 4</title><g id="Layer_2" data-name="Layer 2"><g id="Layer_1-2" data-name="Layer 1"><g id="g14"><g id="g20"><path id="path22" class="cls-1" d="M19.34,16.6h-7.9V14.88H17.6v-.81H11.44V12.72H17.6v-.81H11.44V9.69a2.63,2.63,0,0,0,2.06,1,2.78,2.78,0,0,0,2.71-2.83H13.5V5a2.64,2.64,0,0,0-2.06,1V2.85h7.9Zm0-14.44h-7.9V0L0,2.08V17.84l11.44,2.07V17.29h7.9A.67.67,0,0,0,20,16.6V2.85a.67.67,0,0,0-.66-.69"/></g><g id="g24"><path id="path26" class="cls-1" d="M13.92,4.61V7.44h2.71a2.78,2.78,0,0,0-2.71-2.83"/></g><g id="g28"><path id="path30" class="cls-2" d="M4.84,9.84c.46,0,.9.12,1.18-.37A1.43,1.43,0,0,0,6,8.12a1.08,1.08,0,0,0-1.13-.25Zm0,3.51H3.66V6.66c.89,0,1.76,0,2.64,0A1.1,1.1,0,0,1,7,7.05,2.55,2.55,0,0,1,7.42,9.5,1.88,1.88,0,0,1,6,11a7.63,7.63,0,0,1-1.21.12Z"/></g></g></g></g></svg>