<svg xmlns="http://www.w3.org/2000/svg" viewBox="0 0 137.11 137.11"><defs><style>.cls-1{fill:#f0f6f7;}.cls-2,.cls-6{fill:none;}.cls-2{stroke:#2eebc2;}.cls-2,.cls-3,.cls-4,.cls-6{stroke-miterlimit:10;stroke-width:1.5px;}.cls-3,.cls-5{fill:#2eebc2;}.cls-3,.cls-4,.cls-6{stroke:#401bf2;}.cls-4{fill:#ffc412;}</style></defs><title>Asset 24_1</title><g id="Layer_2" data-name="Layer 2"><g id="Layer_1-2" data-name="Layer 1"><circle class="cls-1" cx="68.55" cy="68.55" r="68.55" transform="translate(-28.4 68.55) rotate(-45)"/><polyline class="cls-2" points="21.63 54.58 26.18 59.39 30.73 54.58 35.28 59.39 39.84 54.58 44.41 59.39"/><path class="cls-3" d="M54,105.61a5.16,5.16,0,1,1-5.16-5.16A5.16,5.16,0,0,1,54,105.61Z"/><rect class="cls-4" x="87.22" y="27.51" width="12.84" height="12.84" transform="translate(183.85 -8.29) rotate(135)"/><rect class="cls-5" x="52.9" y="52.51" width="43.92" height="44.3" rx="12.17" ry="12.17"/><rect class="cls-6" x="45.87" y="49.58" width="43.92" height="44.3" rx="12.17" ry="12.17"/><line class="cls-6" x1="61.46" y1="42.56" x2="61.46" y2="56.98"/><line class="cls-6" x1="74.01" y1="42.56" x2="74.01" y2="56.98"/><rect class="cls-6" x="54.25" y="64.53" width="18.8" height="16.4" rx="4.96" ry="4.96"/><path class="cls-6" d="M75.86,74.74v-4a1.28,1.28,0,0,1,.66-1.11l3.33-1.8a1,1,0,0,1,1.55.92v8a1.05,1.05,0,0,1-1.55.92l-3.33-1.81A1.27,1.27,0,0,1,75.86,74.74Z"/><line class="cls-6" x1="93.31" y1="85.08" x2="105.47" y2="97.24"/><line class="cls-6" x1="105.47" y1="85.08" x2="93.31" y2="97.24"/></g></g></svg>