<svg xmlns="http://www.w3.org/2000/svg" viewBox="0 0 20 20" height="100%" width="100%"><defs><style>.cls-1{fill:#4d4d4d;}</style></defs><title>Asset 11</title><g id="Layer_2" data-name="Layer 2"><g id="Layer_1-2" data-name="Layer 1"><path class="cls-1" d="M6.74,7.49a3.75,3.75,0,1,1,3.74-3.75A3.75,3.75,0,0,1,6.74,7.49Zm0-5.88A2.14,2.14,0,1,0,8.87,3.74,2.14,2.14,0,0,0,6.74,1.61Z"/><path class="cls-1" d="M13.78,15.76H12.16v-2a3.3,3.3,0,0,0-3.3-3.3H4.91a3.3,3.3,0,0,0-3.29,3.3v2H0v-2A4.92,4.92,0,0,1,4.91,8.85H8.86a4.93,4.93,0,0,1,4.92,4.92Z"/></g></g></svg>
