<svg xmlns="http://www.w3.org/2000/svg" viewBox="0 0 15.36 20"><defs><style>.cls-1{fill:#e9e9e0;}.cls-2{fill:#d9d7ca;}.cls-3{fill:#cc4b4c;}.cls-4{fill:#fff;}</style></defs><title>Asset 5</title><g id="Layer_2" data-name="Layer 2"><g id="Layer_1-2" data-name="Layer 1"><path class="cls-1" d="M10.89,0H.52C.23,0,0,.23,0,.69v19c0,.13.23.36.52.36H14.83c.29,0,.53-.23.53-.36v-15c0-.24,0-.32-.09-.38L11.11.09A.31.31,0,0,0,10.89,0Z"/><polygon class="cls-2" points="11.07 0.05 11.07 4.29 15.3 4.29 11.07 0.05"/><path class="cls-3" d="M4.65,11.9h0a.61.61,0,0,1-.35-.11A.88.88,0,0,1,3.9,11C4,10.4,4.69,9.79,6,9.17A22.77,22.77,0,0,0,7.39,5.33,3.57,3.57,0,0,1,6.94,3a.7.7,0,0,1,.41-.43,1.59,1.59,0,0,1,.36-.06c.18,0,.34.23.45.37s.35.42-.13,2.43A11,11,0,0,0,9.85,8a7.37,7.37,0,0,1,1.2-.13c.56,0,.89.13,1,.4a.7.7,0,0,1-.14.77,1,1,0,0,1-.79.43,2.34,2.34,0,0,1-1.5-.82,17.61,17.61,0,0,0-3.16,1,9.48,9.48,0,0,1-.85,1.52C5.28,11.66,5,11.9,4.65,11.9Zm.95-1.83c-.76.43-1.08.78-1.1,1,0,0,0,.12.16.25C4.71,11.28,5,11.14,5.6,10.07Zm4.87-1.59c.29.23.36.34.55.34a.51.51,0,0,0,.43-.16.56.56,0,0,0,.09-.14s-.11-.07-.42-.07A5.17,5.17,0,0,0,10.47,8.48ZM7.8,6.13a24,24,0,0,1-1,2.7,18.86,18.86,0,0,1,2.32-.72A11.73,11.73,0,0,1,7.8,6.13Zm-.22-3a.87.87,0,0,0,0,1.15C8,3.5,7.6,3.11,7.58,3.11Z"/><path class="cls-3" d="M14.83,20H.52A.52.52,0,0,1,0,19.48V13.93H15.36v5.55A.52.52,0,0,1,14.83,20Z"/><path class="cls-4" d="M3.89,18.93H3.3v-3.6h1a1.31,1.31,0,0,1,.85.29,1.12,1.12,0,0,1,.29.36,1,1,0,0,1,.11.46,1.31,1.31,0,0,1-.09.5,1,1,0,0,1-.26.37,1.22,1.22,0,0,1-.4.24,1.72,1.72,0,0,1-.52.08H3.89v1.3Zm0-3.16V17.2h.53a.54.54,0,0,0,.22,0A.44.44,0,0,0,4.83,17,.48.48,0,0,0,5,16.81a1,1,0,0,0,0-.37.75.75,0,0,0,0-.2A.62.62,0,0,0,4.9,16a.51.51,0,0,0-.21-.17.74.74,0,0,0-.36-.08Z"/><path class="cls-4" d="M9.19,17a2.75,2.75,0,0,1-.1.76,1.85,1.85,0,0,1-.24.53,1.29,1.29,0,0,1-.33.33,1.51,1.51,0,0,1-.36.18,1.29,1.29,0,0,1-.31.08l-.21,0H6.28v-3.6H7.36a2.16,2.16,0,0,1,.8.14,1.69,1.69,0,0,1,.57.39,1.41,1.41,0,0,1,.34.54A1.68,1.68,0,0,1,9.19,17ZM7.45,18.5a1,1,0,0,0,.86-.38A2,2,0,0,0,8.57,17a2.28,2.28,0,0,0-.05-.44,1,1,0,0,0-.21-.4,1.12,1.12,0,0,0-.42-.29,1.82,1.82,0,0,0-.68-.11H6.87V18.5Z"/><path class="cls-4" d="M10.63,15.77v1.14h1.5v.4h-1.5v1.62H10v-3.6h2.26v.44Z"/></g></g></svg>