<svg xmlns="http://www.w3.org/2000/svg" viewBox="0 0 30.41 32.41"><defs><style>.cls-1{fill:none;stroke:#4d4d4d;stroke-miterlimit:10;stroke-width:1.53px;}</style></defs><title>Asset 14</title><g id="Layer_2" data-name="Layer 2"><g id="Layer_1-2" data-name="Layer 1"><circle class="cls-1" cx="6.33" cy="3.5" r="2.73"/><path class="cls-1" d="M.77,14.79V12.43A3.24,3.24,0,0,1,4,9.19H8.66a3.24,3.24,0,0,1,3.23,3.24v2.36"/><circle class="cls-1" cx="24.09" cy="3.5" r="2.73"/><path class="cls-1" d="M18.52,14.79V12.43a3.24,3.24,0,0,1,3.24-3.24h4.65a3.24,3.24,0,0,1,3.24,3.24v2.36"/><path class="cls-1" d="M9.06,21.12a2.73,2.73,0,1,1-2.73-2.74A2.73,2.73,0,0,1,9.06,21.12Z"/><path class="cls-1" d="M.77,32.41V30.05A3.24,3.24,0,0,1,4,26.81H8.66a3.24,3.24,0,0,1,3.23,3.24v2.36"/><path class="cls-1" d="M26.82,21.12a2.73,2.73,0,1,1-2.73-2.74A2.74,2.74,0,0,1,26.82,21.12Z"/><path class="cls-1" d="M18.52,32.41V30.05a3.24,3.24,0,0,1,3.24-3.24h4.65a3.24,3.24,0,0,1,3.24,3.24v2.36"/></g></g></svg>