<?xml version="1.0" ?><!DOCTYPE svg  PUBLIC '-//W3C//DTD SVG 1.1//EN'  'http://www.w3.org/Graphics/SVG/1.1/DTD/svg11.dtd'><svg height="512px" style="enable-background:new 0 0 512 512;" version="1.1" viewBox="0 0 512 512" width="512px" xml:space="preserve" xmlns="http://www.w3.org/2000/svg" xmlns:xlink="http://www.w3.org/1999/xlink"><g id="_x31_8_x2C_presenter_x2C_conference_x2C_meeting_x2C_business"><g><path d="M199.026,167.645l26.394,0.109c1.426,0.006,2.742,0.77,3.452,2.008c0.71,1.236,0.708,2.758-0.005,3.992l-14.106,24.412    c-0.715,1.238-2.035,2-3.463,2h-12.271v79.438h254.503V89.217H199.026V167.645z M289.359,181.133l37.158,37.156l71.117-69.465    l-28.88-0.527c-2.209-0.039-3.967-1.863-3.926-4.072c0.04-2.184,1.822-3.926,3.998-3.926c0.024,0,0.049,0,0.074,0l38.506,0.703    c2.209,0.041,3.967,1.863,3.926,4.072c-0.01,0.51-0.121,0.992-0.304,1.436l-8.165,37.984c-0.404,1.877-2.063,3.16-3.907,3.16    c-0.278,0-0.562-0.029-0.845-0.09c-2.159-0.465-3.534-2.592-3.07-4.752l5.517-25.66l-74.107,72.385l-37.492-37.492l-41.125,35.494    l-5.227-6.057L289.359,181.133z"/><path d="M93.642,150.273c19.737,0,35.794-17.393,35.794-38.771c0-21.369-16.057-38.756-35.794-38.756    c-19.723,0-35.768,17.387-35.768,38.756C57.874,132.881,73.919,150.273,93.642,150.273z"/><path d="M218.489,175.725l-121.397-0.502c-0.046,0-0.089-0.014-0.134-0.014c-0.048-0.002-0.094,0.006-0.142,0.002    c-33.402-2.467-62.11,15.953-71.644,45.844v87.668c0.105,0.217,0.199,0.441,0.266,0.682c3.237,11.65,9.413,17.4,19.894,18.455    v-52.77h8v167.424h33.162V335.553h8v106.961h33.15V196.166h0.039c0-2.209,1.791-4,4-4h77.307L218.489,175.725z"/><rect height="16.732" width="321.141" x="165.701" y="64.471"/><polygon points="270.62,287.975 262.62,287.975 262.62,403.863 249.127,403.863 249.127,411.863 284.113,411.863 284.113,403.863     270.62,403.863   "/><polygon points="389.936,287.975 381.936,287.975 381.936,403.863 368.43,403.863 368.43,411.863 403.441,411.863     403.441,403.863 389.936,403.863   "/></g></g><g id="Layer_1"/></svg>