<svg xmlns="http://www.w3.org/2000/svg" viewBox="0 0 176.13 145.18"><defs><style>.cls-1{fill:#ffffff;}</style></defs><title>Asset 1</title><g id="Layer_2" data-name="Layer 2"><g id="Layer_1-2" data-name="Layer 1"><path class="cls-1" d="M137.06,2.92l-.13.14a9.83,9.83,0,0,0-.69,13.08,87.66,87.66,0,0,1,19.94,56.55,87.65,87.65,0,0,1-20,56.34,9.83,9.83,0,0,0,.71,13.12l.15.15a9.86,9.86,0,0,0,14.46-.57c31.07-36.18,34.52-96.82.12-138.19A9.85,9.85,0,0,0,137.06,2.92Z"/><path class="cls-1" d="M108.65,31.16l-.14.14a9.8,9.8,0,0,0-1,12.63,48.35,48.35,0,0,1,9,28.54,48.35,48.35,0,0,1-9,28.63,9.79,9.79,0,0,0,1,12.62l.17.17a9.74,9.74,0,0,0,14.7-1.06c16.26-22.08,17.83-55.89-.06-80.56A9.72,9.72,0,0,0,108.65,31.16Z"/><path class="cls-1" d="M27,134.47v-7.86h6.75c0-4.35.07-8.39-.09-12.41,0-.52-1.16-1.22-1.9-1.46A37.57,37.57,0,0,1,8.78,93,35.6,35.6,0,0,1,5,77.33C5,71.9,5.08,66.47,5,61c0-1-.85-1.9-1.34-2.83-.1-.19-.36-.29-.52-.45-1.64-1.66-3.81-3.12-2.86-6a7.88,7.88,0,0,1,7.05-4.87h5c.05,1,.12,1.79.12,2.6,0,9.1-.07,18.2,0,27.3a30.23,30.23,0,0,0,60.45.5c.14-9.18,0-18.36,0-27.53V47c3.82.14,7.67-1.15,10.64,2.52,2.22,2.74,2.64,4.79-.12,6.9-3,2.31-3.16,5.05-3.2,8.34-.06,6.56.32,13.27-.94,19.63-2.83,14.39-11.93,23.71-25.8,28.33-1.49.5-2.09,1-2,2.64.13,3.65,0,7.3,0,11.19h6.76v7.94Z"/><path class="cls-1" d="M63.8,56.46c0,6.19.1,12.39,0,18.58-.21,10.34-8,19.17-17.93,20.43-11,1.39-20.73-4.88-23.59-15.21a19.92,19.92,0,0,1-.75-5.2c-.06-12.46-.2-24.93,0-37.39.16-8.85,4.6-15.32,12.66-18.86s15.6-2.24,22.28,3.36a19.69,19.69,0,0,1,7.29,15.24c.12,6.35,0,12.7,0,19.05Z"/></g></g></svg>
