<svg width="1792.0000000000002" height="1792.0000000000002" xmlns="http://www.w3.org/2000/svg" style="fill:#fff;">

 <g>
  <title>background</title>
  <rect fill="none" id="canvas_background" height="402" width="582" y="-1" x="-1"/>
 </g>
 <g>
  <title>Layer 1</title>
  <path id="svg_1" d="m1639,1056q0,5 -1,7q-64,268 -268,434.5t-478,166.5q-146,0 -282.5,-55t-243.5,-157l-129,129q-19,19 -45,19t-45,-19t-19,-45l0,-448q0,-26 19,-45t45,-19l448,0q26,0 45,19t19,45t-19,45l-137,137q71,66 161,102t187,36q134,0 250,-65t186,-179q11,-17 53,-117q8,-23 30,-23l192,0q13,0 22.5,9.5t9.5,22.5zm25,-800l0,448q0,26 -19,45t-45,19l-448,0q-26,0 -45,-19t-19,-45t19,-45l138,-138q-148,-137 -349,-137q-134,0 -250,65t-186,179q-11,17 -53,117q-8,23 -30,23l-199,0q-13,0 -22.5,-9.5t-9.5,-22.5l0,-7q65,-268 270,-434.5t480,-166.5q146,0 284,55.5t245,156.5l130,-129q19,-19 45,-19t45,19t19,45z"/>
 </g>
</svg>