<svg xmlns="http://www.w3.org/2000/svg" viewBox="0 0 24.8 24.8"><defs><style>.cls-1{fill:none;stroke:#fff;stroke-miterlimit:10;stroke-width:1.5px;}</style></defs><title>Asset 26</title><g id="Layer_2" data-name="Layer 2"><g id="Layer_1-2" data-name="Layer 1"><path class="cls-1" d="M14.65,2.34h0a2.38,2.38,0,0,0,3.27,1.35h0A2.39,2.39,0,0,1,21.1,6.88h0a2.39,2.39,0,0,0,1.36,3.27h0a2.39,2.39,0,0,1,0,4.5h0a2.39,2.39,0,0,0-1.36,3.27h0a2.38,2.38,0,0,1-3.18,3.18h0a2.39,2.39,0,0,0-3.27,1.36h0a2.39,2.39,0,0,1-4.5,0h0A2.39,2.39,0,0,0,6.88,21.1h0a2.39,2.39,0,0,1-3.18-3.18h0a2.38,2.38,0,0,0-1.35-3.27h0a2.39,2.39,0,0,1,0-4.5h0A2.38,2.38,0,0,0,3.69,6.88h0A2.39,2.39,0,0,1,6.87,3.69h0a2.38,2.38,0,0,0,3.27-1.35h0A2.39,2.39,0,0,1,14.65,2.34Z"/><circle class="cls-1" cx="12.4" cy="12.4" r="3.71"/></g></g></svg>