<svg width="30" height="30" xmlns="http://www.w3.org/2000/svg" style="fill:#871fff;">

 <g>
  <title>background</title>
  <rect fill="none" id="canvas_background" height="402" width="582" y="-1" x="-1"/>
 </g>
 <g>
  <title>Layer 1</title>
  <path id="svg_1" d="m8.8,23l-0.7,0.7c-0.3,0.3 -0.3,0.8 0,1.1c0.1,0.2 0.3,0.2 0.5,0.2s0.4,0 0.6,-0.2l0.7,-0.7c0.3,-0.3 0.3,-0.8 0,-1.1s-0.8,-0.2 -1.1,0zm-1.8,-5.8l-1,0c-0.4,0 -0.8,0.3 -0.8,0.8s0.3,0.8 0.8,0.8l1,0c0.4,0 0.8,-0.3 0.8,-0.8s-0.4,-0.8 -0.8,-0.8zm8,-6.6c0.4,0 0.8,-0.3 0.8,-0.8l0,-1c0,-0.4 -0.3,-0.8 -0.8,-0.8s-0.8,0.3 -0.8,0.8l0,1c0,0.5 0.4,0.8 0.8,0.8zm-5.8,0.4c-0.3,-0.3 -0.8,-0.3 -1.1,0c-0.3,0.3 -0.3,0.8 0,1.1l0.7,0.7c0.1,0.1 0.3,0.2 0.5,0.2s0.4,-0.1 0.5,-0.2c0.3,-0.3 0.3,-0.8 0,-1.1l-0.6,-0.7zm9.3,2.3l-3.3,3.2c-0.5,-0.1 -1,0 -1.4,0.3c-0.6,0.6 -0.6,1.5 0,2.1c0.6,0.6 1.5,0.6 2.1,0c0.4,-0.4 0.5,-0.9 0.4,-1.4l3.3,-3.2c0.3,-0.3 0.3,-0.8 0,-1.1c-0.3,-0.2 -0.8,-0.2 -1.1,0.1zm-2.7,-7.4l0,-0.6c1.1,-0.3 2,-1.4 2,-2.6c-0.1,-1.4 -1.3,-2.7 -2.8,-2.7c-1.5,0 -2.7,1.2 -2.7,2.7c0,1.2 0.8,2.3 2,2.6l0,0.6c-6.3,0.4 -11.3,5.6 -11.3,11.9c0,6.6 5.4,12 12,12s12,-5.4 12,-12c0,-6.3 -5,-11.5 -11.2,-11.9zm-2,-3.1c0,-0.7 0.5,-1.2 1.2,-1.2c0.7,0 1.2,0.5 1.2,1.2c0,0.6 -0.5,1.2 -1.2,1.2c-0.7,0 -1.2,-0.6 -1.2,-1.2zm1.2,25.5c-5.8,0 -10.5,-4.7 -10.5,-10.5s4.7,-10.4 10.5,-10.4s10.5,4.7 10.5,10.5s-4.7,10.4 -10.5,10.4zm0,-3.1c-0.4,0 -0.8,0.3 -0.8,0.8l0,1c0,0.4 0.3,0.8 0.8,0.8s0.8,-0.3 0.8,-0.8l0,-1c0,-0.5 -0.4,-0.8 -0.8,-0.8zm9,-8l-1,0c-0.4,0 -0.8,0.3 -0.8,0.8s0.3,0.8 0.8,0.8l1,0c0.4,0 0.8,-0.3 0.8,-0.8s-0.4,-0.8 -0.8,-0.8zm-3.2,-6.2l-0.7,0.7c-0.3,0.3 -0.3,0.8 0,1.1c0.1,0.1 0.3,0.2 0.5,0.2c0.2,0 0.4,-0.1 0.5,-0.2l0.7,-0.7c0.3,-0.3 0.3,-0.8 0,-1.1c-0.2,-0.3 -0.7,-0.3 -1,0zm0.4,12c-0.3,-0.3 -0.8,-0.3 -1.1,0c-0.3,0.3 -0.3,0.8 0,1.1l0.7,0.7c0.2,0.2 0.4,0.2 0.6,0.2c0.2,0 0.4,-0.1 0.5,-0.2c0.3,-0.3 0.3,-0.8 0,-1.1l-0.7,-0.7z"/>
 </g>
</svg>