<svg width="512" height="512" xmlns="http://www.w3.org/2000/svg" viewBox="0 0 512 512" style="width:100%;height:100%;">

                        <g>
                         <title>background</title>
                         <rect fill="none" id="canvas_background" height="402" width="582" y="-1" x="-1"></rect>
                        </g>
                        <g>
                         <title>Layer 1</title>
                         <polygon fill="#871fff" id="svg_3" points="193.3,260.4 181.7,248.8 256.2,174.5 330.7,248.8 319,260.4 264.4,205.8 264.4,447.6 247.9,447.6 247.9,205.8       "></polygon>
                         <path fill="#871fff" id="svg_5" d="m399.3,183.6c0,-1.2 0.2,-2.4 0.2,-3.6c0,-64.3 -52.8,-116.4 -116.8,-116.4c-46.1,0 -85.8,27.1 -104.4,66.3c-8.1,-4.1 -17.1,-6.4 -26.8,-6.4c-29.6,0 -54.1,23.6 -58.9,52c-35.2,12.1 -60.6,46.7 -60.6,86.3c0,49.7 40.1,90.2 89.6,90.2l91.4,0l0,-16l-90.6,0c-40.9,0 -74.2,-33.5 -74.2,-74.6c0,-31.8 20.2,-61.2 50.2,-71.6l8.4,-2.9l1.5,-8.8c3.6,-21.6 22.1,-39.3 43.9,-39.3c6.9,0 13.7,1.6 19.9,4.8l13.5,6.8l6.5,-13.7c16.6,-34.9 52.1,-57.4 90.4,-57.4c55.3,0 100.9,43.3 100.9,98.9c0,13.3 -0.2,20.3 -0.2,20.3l15.2,0.1c36.6,0.5 65.6,33.4 65.6,70.3c0,36.8 -29.8,66.9 -66.5,67.1l-3.2,0l-97.3,0l0,16l101,0l0,0c45,0 82,-37.3 82,-82.8c0,-45.5 -35.5,-85.5 -80.7,-85.6z"></path>
                        </g>
                       </svg>