<?xml version="1.0" encoding="utf-8"?>
<!-- Generator: Adobe Illustrator 22.0.1, SVG Export Plug-In . SVG Version: 6.00 Build 0)  -->
<svg version="1.1" id="Layer_1" xmlns="http://www.w3.org/2000/svg" xmlns:xlink="http://www.w3.org/1999/xlink" x="0px" y="0px"
	 viewBox="0 0 24 24" style="enable-background:new 0 0 24 24;" xml:space="preserve">
<title>Asset 6</title>
<path d="M12.5,22.4H6.3c-0.7,0-1.4-0.1-2-0.5c-1.2-0.6-1.7-1.6-1.8-2.9c-0.1-1.9,0.1-3.8,0.9-5.5c0.3-0.6,0.6-1.2,1-1.7
	c0.7-0.9,1.7-1.2,2.8-1.3c0.3,0,0.5,0.1,0.7,0.2c0.6,0.4,1.1,0.8,1.7,1c2.3,1.1,4.5,0.9,6.6-0.4c0.3-0.1,0.5-0.3,0.7-0.5
	c0.5-0.4,1-0.4,1.6-0.3c1.3,0.3,2.2,1,2.9,2.2c0.6,1.1,0.9,2.3,1,3.5c0.1,1,0.2,2,0.1,2.9c-0.1,1.7-1.3,2.9-3,3.1
	c-0.3,0-0.6,0.1-0.9,0.1C16.5,22.4,14.5,22.4,12.5,22.4z" fill="#FFFFFF"/>
<path d="M12.5,0.6c3.1,0,5.5,2.5,5.4,5.5c0,3.1-2.5,5.4-5.5,5.4S7,9,7,6l0,0C7.1,3,9.5,0.6,12.5,0.6L12.5,0.6z" fill="#FFFFFF"/>
</svg>
