<svg xmlns="http://www.w3.org/2000/svg" viewBox="0 0 20 14"><defs><style>.cls-1{fill:red;}</style></defs><title>Asset 6</title><g id="Layer_2" data-name="Layer 2"><g id="Layer_1-2" data-name="Layer 1"><g id="_Group_" data-name="&lt;Group&gt;"><path id="_Compound_Path_" data-name="&lt;Compound Path&gt;" class="cls-1" d="M18.1,0H1.9A1.76,1.76,0,0,0,0,1.56V12.44A1.76,1.76,0,0,0,1.9,14H18.1A1.76,1.76,0,0,0,20,12.44V1.56A1.76,1.76,0,0,0,18.1,0ZM5,1.56H6.66V3.11H5ZM3.55,12.44H1.9V10.89H3.55Zm0-9.33H1.9V1.56H3.55Zm3.11,9.33H5V10.89H6.66Zm3.12,0H8.13V10.89H9.78ZM8.93,9V5l3.66,2Zm.85-5.89H8.13V1.56H9.78Zm3.11,9.33H11.25V10.89h1.64Zm0-9.33H11.25V1.56h1.64Zm3,9.33H14.23V10.89h1.64Zm3,0H17.2V10.89h1.64Zm-3-9.33H14.23V1.56h1.64Zm3,0H17.2V1.56h1.64Z"/></g></g></g></svg>