<?xml version="1.0" encoding="utf-8"?>
<!-- Generator: Adobe Illustrator 22.0.1, SVG Export Plug-In . SVG Version: 6.00 Build 0)  -->
<svg version="1.1" id="Layer_1" xmlns="http://www.w3.org/2000/svg" xmlns:xlink="http://www.w3.org/1999/xlink" x="0px" y="0px"
	 viewBox="0 0 24 24" style="enable-background:new 0 0 24 24;" xml:space="preserve">
<style type="text/css">
	.st0{fill:#999999;}
</style>
<title>Asset 7</title>
<g>
	<path class="st0" d="M21,19.7L4.3,3L3,4.3L5.7,7H4.8C4.2,7,3.7,7.5,3.7,8.2V16c0,0.7,0.5,1.2,1.2,1.2h9.8c0.3,0,0.6-0.2,0.9-0.4
		l4.2,4.2L21,19.7z"/>
	<path class="st0" d="M15.8,8.2c0-0.7-0.5-1.2-1.2-1.2h-3.9l5,5L15.8,8.2L15.8,8.2z"/>
</g>
<polygon class="st0" points="18.6,14.8 20.7,15.9 20.7,8.3 16.6,10.5 16.6,12.8 "/>
</svg>
