<svg xmlns="http://www.w3.org/2000/svg" viewBox="0 0 30 29.91"><defs><style>.cls-1{fill:#2a5699;}.cls-2{fill:#fff;}</style></defs><title>Asset 7</title><g id="Layer_2" data-name="Layer 2"><g id="Layer_1-2" data-name="Layer 1"><g id="g3103"><path id="path6" class="cls-1" d="M15.68,0h2V2.78c3.64,0,7.29,0,10.93,0A1.19,1.19,0,0,1,30,4.13C30,11,30,17.84,30,24.69a4.11,4.11,0,0,1-.33,2.11,3.08,3.08,0,0,1-1.72.34c-3.41,0-6.82,0-10.23,0v2.78H15.59C10.4,29,5.2,28.06,0,27.13V2.79C5.23,1.86,10.45,1,15.68,0Z"/><path id="path46" class="cls-2" d="M17.72,3.83H29V26.09H17.72V23.3h8.86V21.91H17.72V20.17h8.86V18.78H17.72V17h8.86V15.65H17.72V13.91h8.86V12.52H17.72V10.78h8.86V9.39H17.72V7.65h8.86V6.26H17.72Z"/><path id="path88" class="cls-2" d="M7,10l2-.1c.45,2.35.91,4.69,1.4,7,.39-2.41.81-4.82,1.23-7.23.68,0,1.36-.06,2-.1-.77,3.37-1.45,6.76-2.29,10.11-.57.31-1.42,0-2.09,0-.46-2.3-1-4.59-1.39-6.91-.4,2.25-.92,4.48-1.38,6.71l-2-.12C4,16.34,3.31,13.3,2.79,10.23l1.75-.07c.35,2.21.75,4.42,1,6.64C6.07,14.52,6.57,12.25,7,10Z"/></g></g></g></svg>