<svg xmlns="http://www.w3.org/2000/svg" viewBox="0 0 44.49 50.85"><defs><style>.cls-1{fill:#e2e5e7;}.cls-2{fill:#b0b7bd;}.cls-3{fill:#cad1d8;}.cls-4{fill:#84bd5a;}.cls-5{fill:#fff;}</style></defs><title>Asset 39</title><g id="Layer_2" data-name="Layer 2"><g id="Layer_1-2" data-name="Layer 1"><path class="cls-1" d="M9.53,0A3.19,3.19,0,0,0,6.36,3.18V47.67a3.19,3.19,0,0,0,3.17,3.18H41.32a3.19,3.19,0,0,0,3.17-3.18v-35L31.78,0Z"/><path class="cls-2" d="M35,12.71h9.53L31.78,0V9.53A3.19,3.19,0,0,0,35,12.71Z"/><polygon class="cls-3" points="44.49 22.25 34.96 12.71 44.49 12.71 44.49 22.25"/><path class="cls-4" d="M38.14,41.32a1.6,1.6,0,0,1-1.59,1.59h-35A1.6,1.6,0,0,1,0,41.32V25.43a1.59,1.59,0,0,1,1.59-1.59h35a1.59,1.59,0,0,1,1.59,1.59Z"/><path class="cls-5" d="M11.16,32.4l2.21-2.77c.66-.87,1.94.24,1.22,1.06S13,32.58,12.26,33.58l2.6,3.23a.83.83,0,1,1-1.39.92l-2.34-3L8.83,37.8c-.65.92-2.08-.12-1.36-1L10,33.58c-.81-1-1.58-2-2.35-2.89a.82.82,0,1,1,1.27-1Z"/><path class="cls-5" d="M16.42,30.11a.8.8,0,0,1,.8-.78.78.78,0,0,1,.75.78v6.36h3.46a.84.84,0,1,1,0,1.67h-4.2a.77.77,0,0,1-.8-.78V30.11Z"/><path class="cls-5" d="M23.84,31.25c.29-2.46,4-2.91,5.77-1.56a.74.74,0,1,1-.82,1.24c-.94-.59-3.07-.87-3.34.45-.34,2.08,5.19.89,5.1,4.27S25.78,39,24,37.5a.93.93,0,0,1-.18-1.24A.75.75,0,0,1,25,36.17c1,.71,3.73,1.25,3.91-.56C28.73,33.73,23.45,34.86,23.84,31.25Z"/><path class="cls-3" d="M36.55,42.91H6.36v1.58H36.55a1.59,1.59,0,0,0,1.59-1.58V41.32A1.6,1.6,0,0,1,36.55,42.91Z"/></g></g></svg>