<svg width="231" height="58" viewBox="0 0 231 58" fill="none" xmlns="http://www.w3.org/2000/svg">
<g clip-path="url(#clip0_166_500)">
<path d="M195.241 49.2699V40.2612H198.471C199.604 40.2612 200.493 40.5279 201.136 41.0595C201.78 41.5928 202.101 42.3385 202.101 43.2998C202.101 43.9265 201.955 44.4649 201.663 44.915C201.371 45.3651 200.955 45.7133 200.414 45.9579C199.874 46.2025 199.226 46.3248 198.47 46.3248H195.599L195.895 46.0156V49.2716H195.239L195.241 49.2699ZM195.897 46.053L195.601 45.7439H198.471C199.441 45.7439 200.177 45.5299 200.679 45.1002C201.181 44.6705 201.432 44.0692 201.432 43.2981C201.432 42.527 201.181 41.9138 200.679 41.4892C200.177 41.0646 199.441 40.8523 198.471 40.8523H195.601L195.897 40.5313V46.053ZM201.495 49.2699L199.153 46.0004H199.898L202.24 49.2699H201.495Z" fill="#3C3C3B"/>
<path d="M205.616 49.3203C205.118 49.3203 204.687 49.2405 204.321 49.0825C203.956 48.9229 203.678 48.6987 203.484 48.4065C203.292 48.1144 203.195 47.7798 203.195 47.4027C203.195 47.0596 203.275 46.7488 203.433 46.4703C203.593 46.1917 203.856 45.9641 204.225 45.7875C204.593 45.6109 205.087 45.5242 205.704 45.5242H208.175V46.027H205.718C205.021 46.027 204.535 46.1544 204.257 46.4125C203.978 46.669 203.839 46.9917 203.839 47.3773C203.839 47.807 204.002 48.1501 204.328 48.4065C204.654 48.663 205.113 48.7921 205.706 48.7921C206.298 48.7921 206.75 48.663 207.141 48.4065C207.532 48.1501 207.82 47.7764 208.01 47.2855L208.191 47.7237C208.01 48.2129 207.703 48.6019 207.27 48.8889C206.837 49.1759 206.285 49.3203 205.616 49.3203ZM208.034 49.2694V47.7373L208.009 47.5046V44.9824C208.009 44.3557 207.839 43.8801 207.501 43.554C207.161 43.2279 206.667 43.0648 206.013 43.0648C205.549 43.0648 205.118 43.1447 204.719 43.3026C204.32 43.4623 203.98 43.6644 203.696 43.9141L203.375 43.4504C203.71 43.1498 204.112 42.9154 204.585 42.7489C205.057 42.5808 205.551 42.4976 206.064 42.4976C206.896 42.4976 207.537 42.7082 207.982 43.1294C208.428 43.5489 208.651 44.1756 208.651 45.0079V49.2677H208.033L208.034 49.2694Z" fill="#3C3C3B"/>
<path d="M209.76 43.104V42.5503H213.777V43.104H209.76ZM210.995 49.2694V41.521C210.995 40.9639 211.156 40.5155 211.477 40.1758C211.798 39.8378 212.26 39.668 212.861 39.668C213.109 39.668 213.355 39.7053 213.595 39.7767C213.834 39.8497 214.033 39.9601 214.188 40.1045L213.931 40.5936C213.802 40.4646 213.648 40.3694 213.468 40.31C213.287 40.2505 213.094 40.22 212.888 40.22C212.476 40.22 212.163 40.3338 211.949 40.5614C211.735 40.789 211.628 41.1253 211.628 41.572V42.7048L211.642 43.014V49.2694H210.998H210.995ZM215.397 40.9163C215.251 40.9163 215.127 40.8654 215.023 40.7618C214.92 40.6582 214.869 40.5376 214.869 40.4017C214.869 40.2573 214.92 40.1317 215.023 40.028C215.127 39.9244 215.251 39.8735 215.397 39.8735C215.552 39.8735 215.677 39.9227 215.777 40.0213C215.876 40.1198 215.925 40.2421 215.925 40.3881C215.925 40.5342 215.876 40.6582 215.777 40.7618C215.679 40.8654 215.552 40.9163 215.397 40.9163ZM215.088 49.2694V42.5503H215.732V49.2694H215.088Z" fill="#3C3C3B"/>
<path d="M218.009 49.2692V39.7188H218.652V49.2692H218.009ZM218.498 47.4162L218.512 46.606L222.951 42.5518H223.775L220.828 45.3203L220.443 45.6413L218.5 47.4179L218.498 47.4162ZM223.26 49.2692L220.326 45.5887L220.764 45.1114L224.059 49.2692H223.26Z" fill="#3C3C3B"/>
<path d="M224.598 51.8191C224.289 51.8191 224 51.7681 223.73 51.6645C223.458 51.5609 223.231 51.4115 223.042 51.2144L223.363 50.7253C223.535 50.9053 223.721 51.0378 223.923 51.1244C224.124 51.211 224.355 51.2535 224.611 51.2535C224.92 51.2535 225.192 51.1669 225.428 50.997C225.664 50.8255 225.885 50.5113 226.092 50.0578L226.556 49.0285L226.646 48.913L229.491 42.5539H230.147L226.697 50.1869C226.517 50.5979 226.322 50.9223 226.111 51.1584C225.901 51.3945 225.671 51.5643 225.423 51.6662C225.175 51.7698 224.9 51.8208 224.599 51.8208L224.598 51.8191ZM226.541 49.4378L223.426 42.5522H224.107L226.938 48.8723L226.539 49.4378H226.541Z" fill="#3C3C3B"/>
<path d="M66.5225 9.26514H71.11V34.1137H86.7835V37.937H66.5225V9.26514Z" fill="#3C3C3B"/>
<path d="M87.9688 10.9483C87.9688 9.41968 89.1917 8.15771 90.7593 8.15771C92.327 8.15771 93.5499 9.41968 93.5499 10.9483C93.5499 12.4769 92.327 13.7389 90.7593 13.7389C89.1917 13.7389 87.9688 12.4769 87.9688 10.9483ZM88.4664 18.8224H93.054V37.937H88.4664V18.8224Z" fill="#3C3C3B"/>
<path d="M105.672 22.072C103.34 22.072 100.281 23.869 100.281 27.8825V37.9374H95.6934V18.8229H100.281V21.6525C102.039 19.2441 104.831 18.2114 107.353 18.2114C111.443 18.2114 114.808 20.2377 114.808 26.3539V37.9374H110.22V27.9216C110.22 24.4431 109.111 22.072 105.672 22.072Z" fill="#3C3C3B"/>
<path d="M150.457 28.3802C150.457 22.6835 155.16 18.2114 161.123 18.2114C167.087 18.2114 171.79 22.6835 171.79 28.3802C171.79 34.0768 167.088 38.5489 161.123 38.5489C155.158 38.5489 150.457 34.0768 150.457 28.3802ZM167.201 28.3802C167.201 24.8253 164.524 22.0347 161.122 22.0347C157.72 22.0347 155.043 24.8253 155.043 28.3802C155.043 31.9351 157.72 34.7256 161.122 34.7256C164.524 34.7256 167.201 31.9351 167.201 28.3802Z" fill="#3C3C3B"/>
<path d="M177.908 27.9337L168.962 9.92822H173.549L180.545 23.7674L187.312 9.92822H191.135L182.495 27.8963V38.6001H177.908V27.9337ZM188.306 28.3804C188.306 22.6837 193.009 18.2117 198.972 18.2117C204.935 18.2117 209.639 22.6837 209.639 28.3804C209.639 34.0771 204.937 38.5491 198.972 38.5491C193.007 38.5491 188.306 34.0771 188.306 28.3804ZM205.051 28.3804C205.051 24.8255 202.374 22.0349 198.972 22.0349C195.57 22.0349 192.893 24.8255 192.893 28.3804C192.893 31.9353 195.57 34.7259 198.972 34.7259C202.374 34.7259 205.051 31.9353 205.051 28.3804ZM211.016 30.4067V18.8231H215.604V28.839C215.604 32.3174 216.713 34.6885 220.152 34.6885C222.484 34.6885 225.543 32.8915 225.543 28.878V18.8231H230.131V37.9377H225.543V35.108C223.785 37.5165 220.993 38.5491 218.471 38.5491C214.381 38.5491 211.016 36.5229 211.016 30.4067Z" fill="url(#paint0_linear_166_500)"/>
<path d="M122.326 39.7905H126.917C127.182 43.0533 129.725 45.5212 132.913 45.5212C136.101 45.5212 138.643 43.055 138.908 39.7905H143.499C143.195 45.1781 138.642 49.3155 132.913 49.3155C127.184 49.3155 122.628 45.1798 122.326 39.7905Z" fill="#3C3C3B"/>
<path d="M148.402 18.3423H127.571C121.95 18.3423 117.398 22.8959 117.398 28.5144C117.398 34.133 121.952 38.6916 127.571 38.6916H138.23C143.85 38.6916 148.402 34.1347 148.402 28.5144C148.402 26.4576 147.791 24.5451 146.738 22.9434H148.402V18.3423ZM138.23 34.0905H127.571C124.5 34.0905 122 31.5903 122 28.5144C122 25.4385 124.5 22.9434 127.571 22.9434H138.23C141.301 22.9434 143.801 25.4436 143.801 28.5144C143.801 31.5853 141.301 34.0905 138.23 34.0905Z" fill="#3C3C3B"/>
<path d="M34.7703 14.8652C34.31 14.8652 33.8938 15.0503 33.5881 15.3527C33.2875 15.6584 33.1007 16.0745 33.1007 16.5348V22.1669C33.1007 23.0875 33.848 23.8314 34.7686 23.8314C35.2288 23.8314 35.645 23.6463 35.9507 23.344C36.2513 23.0433 36.4381 22.6272 36.4381 22.1669V16.5348C36.4381 15.6142 35.6908 14.8669 34.7703 14.8669V14.8652ZM23.9952 14.8652C23.5349 14.8652 23.1188 15.0503 22.8181 15.3527C22.5124 15.6584 22.3273 16.0745 22.3273 16.5348V22.1669C22.3273 23.0875 23.0746 23.8314 23.9952 23.8314C24.4554 23.8314 24.875 23.6463 25.1773 23.344C25.4779 23.0433 25.6648 22.6272 25.6648 22.1669V16.5348C25.6648 15.6142 24.9208 14.8669 23.9969 14.8669L23.9952 14.8652ZM34.7703 14.8652C34.31 14.8652 33.8938 15.0503 33.5881 15.3527C33.2875 15.6584 33.1007 16.0745 33.1007 16.5348V22.1669C33.1007 23.0875 33.848 23.8314 34.7686 23.8314C35.2288 23.8314 35.645 23.6463 35.9507 23.344C36.2513 23.0433 36.4381 22.6272 36.4381 22.1669V16.5348C36.4381 15.6142 35.6908 14.8669 34.7703 14.8669V14.8652ZM23.9952 14.8652C23.5349 14.8652 23.1188 15.0503 22.8181 15.3527C22.5124 15.6584 22.3273 16.0745 22.3273 16.5348V22.1669C22.3273 23.0875 23.0746 23.8314 23.9952 23.8314C24.4554 23.8314 24.875 23.6463 25.1773 23.344C25.4779 23.0433 25.6648 22.6272 25.6648 22.1669V16.5348C25.6648 15.6142 24.9208 14.8669 23.9969 14.8669L23.9952 14.8652ZM34.7703 14.8652C34.31 14.8652 33.8938 15.0503 33.5881 15.3527C33.2875 15.6584 33.1007 16.0745 33.1007 16.5348V22.1669C33.1007 23.0875 33.848 23.8314 34.7686 23.8314C35.2288 23.8314 35.645 23.6463 35.9507 23.344C36.2513 23.0433 36.4381 22.6272 36.4381 22.1669V16.5348C36.4381 15.6142 35.6908 14.8669 34.7703 14.8669V14.8652ZM23.9952 14.8652C23.5349 14.8652 23.1188 15.0503 22.8181 15.3527C22.5124 15.6584 22.3273 16.0745 22.3273 16.5348V22.1669C22.3273 23.0875 23.0746 23.8314 23.9952 23.8314C24.4554 23.8314 24.875 23.6463 25.1773 23.344C25.4779 23.0433 25.6648 22.6272 25.6648 22.1669V16.5348C25.6648 15.6142 24.9208 14.8669 23.9969 14.8669L23.9952 14.8652ZM40.3361 39.9006C39.8487 45.8606 35.2034 50.3649 29.3844 50.3649C23.5654 50.3649 18.915 45.8606 18.4327 39.9006H10.0439C10.601 49.7416 18.915 57.2997 29.3844 57.2997C34.614 57.2997 39.3137 55.411 42.77 52.291C46.2264 49.1709 48.4463 44.8211 48.7215 39.9023H40.3361V39.9006ZM25.6631 16.5331V22.1652C25.6631 22.6255 25.4779 23.0416 25.1756 23.3423C24.875 23.6429 24.4537 23.8297 23.9935 23.8297C23.0729 23.8297 22.3256 23.0858 22.3256 22.1652V16.5331C22.3256 16.0728 22.5107 15.6567 22.8164 15.351C23.1171 15.0503 23.5332 14.8635 23.9935 14.8635C24.9174 14.8635 25.6614 15.6108 25.6614 16.5314L25.6631 16.5331ZM36.4381 16.5331V22.1652C36.4381 22.6255 36.253 23.0416 35.9507 23.3423C35.645 23.6429 35.2288 23.8297 34.7686 23.8297C33.848 23.8297 33.1007 23.0858 33.1007 22.1652V16.5331C33.1007 16.0728 33.2858 15.6567 33.5881 15.351C33.8938 15.0503 34.31 14.8635 34.7703 14.8635C35.6908 14.8635 36.4381 15.6108 36.4381 16.5314V16.5331ZM59.128 8.47555L56.6075 12.3939C56.1472 11.2458 55.5799 10.1536 54.9107 9.13116C51.7617 4.30242 46.4251 1.03796 40.3056 0.72374C39.9913 0.710153 39.6686 0.70166 39.3493 0.70166H19.4382C9.17262 0.70166 0.853516 9.02416 0.853516 19.2846V19.5767C0.853516 29.8372 9.17262 38.1614 19.4382 38.1614H39.3493C47.2506 38.1614 53.9952 33.2273 56.6839 26.2772L59.128 30.0784C59.8159 31.1467 61.4736 30.661 61.4736 29.3888V9.16513C61.4736 7.89468 59.8159 7.40722 59.128 8.47555ZM39.0929 29.4839H19.6233C14.0133 29.4839 9.44607 24.9167 9.44607 19.3067C9.44607 13.6966 14.0133 9.12946 19.6233 9.12946H39.0929C44.708 9.12946 49.2701 13.6966 49.2701 19.3067C49.2701 24.9167 44.708 29.4839 39.0929 29.4839Z" fill="url(#paint1_linear_166_500)"/>
</g>
<defs>
<linearGradient id="paint0_linear_166_500" x1="227.598" y1="42.3248" x2="169.592" y2="8.8361" gradientUnits="userSpaceOnUse">
<stop stop-color="#C1A9D1"/>
<stop offset="0.51" stop-color="#8265A8"/>
<stop offset="1" stop-color="#5A4293"/>
</linearGradient>
<linearGradient id="paint1_linear_166_500" x1="55.4185" y1="40.2301" x2="3.26704" y2="10.1214" gradientUnits="userSpaceOnUse">
<stop stop-color="#C1A9D1"/>
<stop offset="0.51" stop-color="#8265A8"/>
<stop offset="1" stop-color="#5A4293"/>
</linearGradient>
<clipPath id="clip0_166_500">
<rect width="229.293" height="56.7289" fill="white" transform="translate(0.853516 0.635742)"/>
</clipPath>
</defs>
</svg>
