<svg width="512" height="512" xmlns="http://www.w3.org/2000/svg" viewBox="0 0 512 512" style="fill:#fff;">
 <g>
  <path id="svg_1" d="m384.83,450l-228.83,0a50.17,50.17 0 0 1 -50.11,-50.11l0,-301.78a50.17,50.17 0 0 1 50.11,-50.11l150.1,0a15,15 0 0 1 10.61,4.39l113.84,113.88a15,15 0 0 1 4.39,10.61l0,223a50.17,50.17 0 0 1 -50.11,50.12zm-228.83,-372a20.13,20.13 0 0 0 -20.11,20.11l0,301.78a20.13,20.13 0 0 0 20.11,20.11l228.83,0a20.13,20.13 0 0 0 20.11,-20.11l0,-216.8l-105.09,-105.09l-143.85,0z"/>
  <path id="svg_2" d="m419.94,191.88l-78.77,0a50.17,50.17 0 0 1 -50.11,-50.11l0,-78.77a15,15 0 0 1 30,0l0,78.77a20.13,20.13 0 0 0 20.11,20.11l78.77,0a15,15 0 0 1 0,30z"/>
  <path id="svg_3" d="m324.84,300.45a14.92,14.92 0 0 1 -10.6,-4.4l-43.84,-43.84l-43.85,43.84a15,15 0 1 1 -21.21,-21.21l54.45,-54.45a15,15 0 0 1 21.21,0l54.45,54.45a15,15 0 0 1 -10.61,25.61z"/>
  <path id="svg_4" d="m270.4,375a15,15 0 0 1 -15,-15l0,-119a15,15 0 1 1 30,0l0,119a15,15 0 0 1 -15,15z"/>
 </g>
</svg>