<svg width="85" height="81" viewBox="0 0 85 81" fill="none" xmlns="http://www.w3.org/2000/svg">
<path d="M47.5572 20.7103C46.9118 20.7103 46.3283 20.9695 45.8997 21.3927C45.4781 21.8207 45.2162 22.4033 45.2162 23.0477V30.9327C45.2162 32.2215 46.264 33.263 47.5548 33.263C48.2002 33.263 48.7837 33.0038 49.2124 32.5805C49.6339 32.1597 49.8959 31.5771 49.8959 30.9327V23.0477C49.8959 21.7589 48.848 20.7127 47.5572 20.7127V20.7103ZM32.4487 20.7103C31.8033 20.7103 31.2198 20.9695 30.7982 21.3927C30.3696 21.8207 30.11 22.4033 30.11 23.0477V30.9327C30.11 32.2215 31.1579 33.263 32.4487 33.263C33.0941 33.263 33.6823 33.0038 34.1062 32.5805C34.5278 32.1597 34.7897 31.5771 34.7897 30.9327V23.0477C34.7897 21.7589 33.7466 20.7127 32.451 20.7127L32.4487 20.7103ZM47.5572 20.7103C46.9118 20.7103 46.3283 20.9695 45.8997 21.3927C45.4781 21.8207 45.2162 22.4033 45.2162 23.0477V30.9327C45.2162 32.2215 46.264 33.263 47.5548 33.263C48.2002 33.263 48.7837 33.0038 49.2124 32.5805C49.6339 32.1597 49.8959 31.5771 49.8959 30.9327V23.0477C49.8959 21.7589 48.848 20.7127 47.5572 20.7127V20.7103ZM32.4487 20.7103C31.8033 20.7103 31.2198 20.9695 30.7982 21.3927C30.3696 21.8207 30.11 22.4033 30.11 23.0477V30.9327C30.11 32.2215 31.1579 33.263 32.4487 33.263C33.0941 33.263 33.6823 33.0038 34.1062 32.5805C34.5278 32.1597 34.7897 31.5771 34.7897 30.9327V23.0477C34.7897 21.7589 33.7466 20.7127 32.451 20.7127L32.4487 20.7103ZM47.5572 20.7103C46.9118 20.7103 46.3283 20.9695 45.8997 21.3927C45.4781 21.8207 45.2162 22.4033 45.2162 23.0477V30.9327C45.2162 32.2215 46.264 33.263 47.5548 33.263C48.2002 33.263 48.7837 33.0038 49.2124 32.5805C49.6339 32.1597 49.8959 31.5771 49.8959 30.9327V23.0477C49.8959 21.7589 48.848 20.7127 47.5572 20.7127V20.7103ZM32.4487 20.7103C31.8033 20.7103 31.2198 20.9695 30.7982 21.3927C30.3696 21.8207 30.11 22.4033 30.11 23.0477V30.9327C30.11 32.2215 31.1579 33.263 32.4487 33.263C33.0941 33.263 33.6823 33.0038 34.1062 32.5805C34.5278 32.1597 34.7897 31.5771 34.7897 30.9327V23.0477C34.7897 21.7589 33.7466 20.7127 32.451 20.7127L32.4487 20.7103ZM55.3616 55.7599C54.6781 64.1038 48.1645 70.4099 40.0053 70.4099C31.8461 70.4099 25.3254 64.1038 24.6491 55.7599H12.8866C13.6677 69.5372 25.3254 80.1186 40.0053 80.1186C47.3381 80.1186 53.9279 77.4745 58.7743 73.1063C63.6208 68.7382 66.7335 62.6485 67.1193 55.7623H55.3616V55.7599ZM34.7873 23.0453V30.9303C34.7873 31.5747 34.5278 32.1573 34.1038 32.5782C33.6823 32.9991 33.0917 33.2606 32.4463 33.2606C31.1555 33.2606 30.1076 32.2191 30.1076 30.9303V23.0453C30.1076 22.4009 30.3672 21.8184 30.7959 21.3904C31.2174 20.9695 31.8009 20.7079 32.4463 20.7079C33.7418 20.7079 34.785 21.7542 34.785 23.043L34.7873 23.0453ZM49.8959 23.0453V30.9303C49.8959 31.5747 49.6363 32.1573 49.2124 32.5782C48.7837 32.9991 48.2002 33.2606 47.5548 33.2606C46.264 33.2606 45.2162 32.2191 45.2162 30.9303V23.0453C45.2162 22.4009 45.4757 21.8184 45.8997 21.3904C46.3283 20.9695 46.9118 20.7079 47.5572 20.7079C48.848 20.7079 49.8959 21.7542 49.8959 23.043V23.0453ZM81.7111 11.7648L78.1768 17.2505C77.5315 15.6431 76.736 14.1141 75.7977 12.6826C71.3823 5.9224 63.8994 1.35216 55.3187 0.91226C54.8781 0.893237 54.4256 0.881348 53.9779 0.881348H26.059C11.6648 0.881348 0 12.5328 0 26.8975V27.3065C0 41.6711 11.6648 53.325 26.059 53.325H53.9779C65.0569 53.325 74.514 46.4173 78.284 36.6871L81.7111 42.0087C82.6756 43.5044 85 42.8243 85 41.0433V12.7302C85 10.9516 82.6756 10.2691 81.7111 11.7648ZM53.6183 41.1765H26.3185C18.4523 41.1765 12.0483 34.7824 12.0483 26.9284C12.0483 19.0743 18.4523 12.6803 26.3185 12.6803H53.6183C61.4917 12.6803 67.8885 19.0743 67.8885 26.9284C67.8885 34.7824 61.4917 41.1765 53.6183 41.1765Z" fill="white"/>
</svg>
